<svg xmlns="http://www.w3.org/2000/svg" viewBox="0 0 400 240" fill="none">
  <rect width="400" height="240" fill="#2d2d3a"/>
  <rect x="20" y="15" width="360" height="10" rx="2" fill="#444460"/>
  <circle cx="35" cy="20" r="4" fill="#ff6058"/>
  <circle cx="50" cy="20" r="4" fill="#ffbd2e"/>
  <circle cx="65" cy="20" r="4" fill="#27ca40"/>
  <rect x="20" y="40" width="120" height="6" rx="2" fill="#61afef"/>
  <rect x="20" y="55" width="200" height="4" rx="2" fill="#98c379"/>
  <rect x="20" y="67" width="160" height="4" rx="2" fill="#e5c07b"/>
  <rect x="20" y="79" width="180" height="4" rx="2" fill="#c678dd"/>
  <rect x="20" y="95" width="140" height="6" rx="2" fill="#61afef"/>
  <rect x="20" y="110" width="220" height="4" rx="2" fill="#98c379"/>
  <rect x="20" y="122" width="190" height="4" rx="2" fill="#e06c75"/>
  <rect x="20" y="138" width="100" height="6" rx="2" fill="#61afef"/>
  <rect x="20" y="153" width="240" height="4" rx="2" fill="#98c379"/>
  <rect x="20" y="165" width="170" height="4" rx="2" fill="#e5c07b"/>
  <rect x="20" y="177" width="200" height="4" rx="2" fill="#c678dd"/>
  <rect x="20" y="193" width="80" height="6" rx="2" fill="#61afef"/>
  <rect x="20" y="208" width="260" height="4" rx="2" fill="#98c379"/>
  <rect x="20" y="220" width="150" height="4" rx="2" fill="#e06c75"/>
</svg>
